<svg width="20" height="21" viewBox="0 0 20 21" fill="none" xmlns="http://www.w3.org/2000/svg">
<g clip-path="url(#clip0_6_126)">
<path fill-rule="evenodd" clip-rule="evenodd" d="M19.6 10.7273C19.6 10.0182 19.5364 9.33637 19.4182 8.68182H10V12.55H15.3818C15.15 13.8 14.4455 14.8591 13.3864 15.5682V18.0773H16.6182C18.5091 16.3364 19.6 13.7727 19.6 10.7273Z" fill="#4285F4"/>
<path fill-rule="evenodd" clip-rule="evenodd" d="M10 20.5C12.7 20.5 14.9637 19.6045 16.6182 18.0772L13.3864 15.5681C12.4909 16.1681 11.3455 16.5227 10 16.5227C7.39548 16.5227 5.19093 14.7636 4.40457 12.4H1.06366V14.9909C2.70911 18.2591 6.09093 20.5 10 20.5Z" fill="#34A853"/>
<path fill-rule="evenodd" clip-rule="evenodd" d="M4.40455 12.4C4.20455 11.8 4.09091 11.1591 4.09091 10.5C4.09091 9.84091 4.20455 9.2 4.40455 8.6V6.00909H1.06364C0.386364 7.35909 0 8.88637 0 10.5C0 12.1136 0.386364 13.6409 1.06364 14.9909L4.40455 12.4Z" fill="#FBBC05"/>
<path fill-rule="evenodd" clip-rule="evenodd" d="M10 4.47727C11.4682 4.47727 12.7864 4.98182 13.8228 5.97273L16.6909 3.10455C14.9591 1.49091 12.6955 0.5 10 0.5C6.09093 0.5 2.70911 2.74091 1.06366 6.00909L4.40457 8.6C5.19093 6.23636 7.39548 4.47727 10 4.47727Z" fill="#EA4335"/>
</g>
<defs>
<clipPath id="clip0_6_126">
<rect y="0.5" width="20" height="20" rx="6" fill="white"/>
</clipPath>
</defs>
</svg>
